<mxfile host="Electron" modified="2023-12-26T19:07:54.894Z" agent="Mozilla/5.0 (Macintosh; Intel Mac OS X 10_15_7) AppleWebKit/537.36 (KHTML, like Gecko) draw.io/22.1.11 Chrome/114.0.5735.289 Electron/25.9.8 Safari/537.36" etag="RCCE9-8MKgRAUD3JXtgZ" version="22.1.11" type="device">
  <diagram name="Page-1" id="J1ulzrVN8QK7nklARanK">
    <mxGraphModel dx="1593" dy="2118" grid="1" gridSize="10" guides="1" tooltips="1" connect="1" arrows="1" fold="1" page="1" pageScale="1" pageWidth="827" pageHeight="1169" math="0" shadow="0">
      <root>
        <mxCell id="0" />
        <mxCell id="1" parent="0" />
        <mxCell id="mPcV5KLfGnNKVoKbEEDN-49" value="&lt;font style=&quot;font-size: 18px;&quot;&gt;Azure ML Workspace&lt;/font&gt;" style="rounded=1;whiteSpace=wrap;html=1;fillStyle=hatch;verticalAlign=top;labelPosition=center;verticalLabelPosition=bottom;align=center;fontSize=15;" vertex="1" parent="1">
          <mxGeometry x="470" y="-150" width="840" height="1180" as="geometry" />
        </mxCell>
        <mxCell id="mPcV5KLfGnNKVoKbEEDN-97" style="edgeStyle=orthogonalEdgeStyle;rounded=0;orthogonalLoop=1;jettySize=auto;html=1;dashed=1;fontSize=15;" edge="1" parent="1" source="mPcV5KLfGnNKVoKbEEDN-33" target="mPcV5KLfGnNKVoKbEEDN-11">
          <mxGeometry relative="1" as="geometry" />
        </mxCell>
        <mxCell id="mPcV5KLfGnNKVoKbEEDN-98" value="&lt;font style=&quot;font-size: 15px;&quot;&gt;Uses&lt;/font&gt;" style="edgeLabel;html=1;align=center;verticalAlign=middle;resizable=0;points=[];fontSize=15;" vertex="1" connectable="0" parent="mPcV5KLfGnNKVoKbEEDN-97">
          <mxGeometry x="-0.1267" y="3" relative="1" as="geometry">
            <mxPoint as="offset" />
          </mxGeometry>
        </mxCell>
        <mxCell id="mPcV5KLfGnNKVoKbEEDN-33" value="Deployment Runtime" style="rounded=1;whiteSpace=wrap;html=1;fillStyle=hatch;fontSize=18;verticalAlign=top;labelPosition=center;verticalLabelPosition=bottom;align=center;" vertex="1" parent="1">
          <mxGeometry x="875" y="760" width="415" height="160" as="geometry" />
        </mxCell>
        <mxCell id="mPcV5KLfGnNKVoKbEEDN-99" style="edgeStyle=orthogonalEdgeStyle;rounded=0;orthogonalLoop=1;jettySize=auto;html=1;entryX=0;entryY=0.25;entryDx=0;entryDy=0;dashed=1;" edge="1" parent="1" source="mPcV5KLfGnNKVoKbEEDN-2" target="mPcV5KLfGnNKVoKbEEDN-33">
          <mxGeometry relative="1" as="geometry" />
        </mxCell>
        <mxCell id="mPcV5KLfGnNKVoKbEEDN-100" value="Exposes" style="edgeLabel;html=1;align=center;verticalAlign=middle;resizable=0;points=[];fontSize=15;" vertex="1" connectable="0" parent="mPcV5KLfGnNKVoKbEEDN-99">
          <mxGeometry x="-0.2325" y="1" relative="1" as="geometry">
            <mxPoint as="offset" />
          </mxGeometry>
        </mxCell>
        <mxCell id="mPcV5KLfGnNKVoKbEEDN-2" value="Deployment Endpoint" style="sketch=0;outlineConnect=0;fontColor=#232F3E;gradientColor=none;fillColor=#8C4FFF;strokeColor=none;dashed=0;verticalLabelPosition=bottom;verticalAlign=top;align=center;html=1;fontSize=15;fontStyle=0;aspect=fixed;pointerEvents=1;shape=mxgraph.aws4.endpoint;" vertex="1" parent="1">
          <mxGeometry x="660.0000000000001" y="780" width="78" height="78" as="geometry" />
        </mxCell>
        <mxCell id="mPcV5KLfGnNKVoKbEEDN-11" value="Model&lt;br&gt;" style="sketch=0;outlineConnect=0;fontColor=#232F3E;gradientColor=none;fillColor=#01A88D;strokeColor=none;dashed=0;verticalLabelPosition=bottom;verticalAlign=top;align=center;html=1;fontSize=15;fontStyle=0;aspect=fixed;pointerEvents=1;shape=mxgraph.aws4.sagemaker_model;" vertex="1" parent="1">
          <mxGeometry x="1050" y="580" width="70" height="70" as="geometry" />
        </mxCell>
        <mxCell id="mPcV5KLfGnNKVoKbEEDN-72" style="edgeStyle=orthogonalEdgeStyle;rounded=0;orthogonalLoop=1;jettySize=auto;html=1;fontSize=15;" edge="1" parent="1" source="mPcV5KLfGnNKVoKbEEDN-89" target="mPcV5KLfGnNKVoKbEEDN-11">
          <mxGeometry relative="1" as="geometry">
            <mxPoint x="619" y="490" as="sourcePoint" />
            <Array as="points">
              <mxPoint x="619" y="611" />
              <mxPoint x="1080" y="611" />
            </Array>
          </mxGeometry>
        </mxCell>
        <mxCell id="mPcV5KLfGnNKVoKbEEDN-73" value="5. Create model using flow (If Accuracy &amp;gt;%60)" style="edgeLabel;html=1;align=center;verticalAlign=middle;resizable=0;points=[];fontSize=15;" vertex="1" connectable="0" parent="mPcV5KLfGnNKVoKbEEDN-72">
          <mxGeometry x="0.4206" y="-3" relative="1" as="geometry">
            <mxPoint x="-67" y="16" as="offset" />
          </mxGeometry>
        </mxCell>
        <mxCell id="mPcV5KLfGnNKVoKbEEDN-78" style="edgeStyle=orthogonalEdgeStyle;rounded=0;orthogonalLoop=1;jettySize=auto;html=1;entryX=0;entryY=0.75;entryDx=0;entryDy=0;fontSize=15;" edge="1" parent="1" source="mPcV5KLfGnNKVoKbEEDN-89" target="mPcV5KLfGnNKVoKbEEDN-33">
          <mxGeometry relative="1" as="geometry">
            <mxPoint x="569" y="490" as="sourcePoint" />
            <Array as="points">
              <mxPoint x="569" y="580" />
              <mxPoint x="570" y="875" />
            </Array>
          </mxGeometry>
        </mxCell>
        <mxCell id="mPcV5KLfGnNKVoKbEEDN-79" value="7. Create Deployment" style="edgeLabel;html=1;align=center;verticalAlign=middle;resizable=0;points=[];fontSize=15;" vertex="1" connectable="0" parent="mPcV5KLfGnNKVoKbEEDN-78">
          <mxGeometry x="0.6103" y="-1" relative="1" as="geometry">
            <mxPoint as="offset" />
          </mxGeometry>
        </mxCell>
        <mxCell id="mPcV5KLfGnNKVoKbEEDN-50" value="&lt;font style=&quot;font-size: 18px;&quot;&gt;Test Runtime&lt;/font&gt;" style="rounded=1;whiteSpace=wrap;html=1;fillStyle=hatch;fontSize=15;verticalAlign=top;labelPosition=center;verticalLabelPosition=bottom;align=center;" vertex="1" parent="1">
          <mxGeometry x="911" y="110" width="329.8" height="190" as="geometry" />
        </mxCell>
        <mxCell id="mPcV5KLfGnNKVoKbEEDN-18" value="Test VM" style="image;aspect=fixed;html=1;points=[];align=center;fontSize=15;image=img/lib/azure2/compute/Virtual_Machine.svg;" vertex="1" parent="1">
          <mxGeometry x="951" y="170" width="86.25" height="80" as="geometry" />
        </mxCell>
        <mxCell id="mPcV5KLfGnNKVoKbEEDN-56" style="edgeStyle=orthogonalEdgeStyle;rounded=0;orthogonalLoop=1;jettySize=auto;html=1;exitX=0;exitY=0.5;exitDx=0;exitDy=0;entryX=0;entryY=0.5;entryDx=0;entryDy=0;fontSize=15;" edge="1" parent="1" source="mPcV5KLfGnNKVoKbEEDN-50" target="mPcV5KLfGnNKVoKbEEDN-50">
          <mxGeometry relative="1" as="geometry" />
        </mxCell>
        <mxCell id="mPcV5KLfGnNKVoKbEEDN-25" value="Test VM Environment" style="sketch=0;outlineConnect=0;fontColor=#232F3E;gradientColor=none;fillColor=#DD344C;strokeColor=none;dashed=0;verticalLabelPosition=bottom;verticalAlign=top;align=center;html=1;fontSize=15;fontStyle=0;aspect=fixed;pointerEvents=1;shape=mxgraph.aws4.development_environment;" vertex="1" parent="1">
          <mxGeometry x="1121" y="175" width="76.9" height="70" as="geometry" />
        </mxCell>
        <mxCell id="mPcV5KLfGnNKVoKbEEDN-32" value="Deployment VM" style="image;aspect=fixed;html=1;points=[];align=center;fontSize=15;image=img/lib/azure2/compute/Virtual_Machine.svg;" vertex="1" parent="1">
          <mxGeometry x="920" y="780" width="75.47" height="70" as="geometry" />
        </mxCell>
        <mxCell id="mPcV5KLfGnNKVoKbEEDN-74" style="edgeStyle=orthogonalEdgeStyle;rounded=0;orthogonalLoop=1;jettySize=auto;html=1;fontSize=15;" edge="1" parent="1" source="mPcV5KLfGnNKVoKbEEDN-89" target="mPcV5KLfGnNKVoKbEEDN-2">
          <mxGeometry relative="1" as="geometry">
            <mxPoint x="594" y="490" as="sourcePoint" />
            <mxPoint x="910" y="760" as="targetPoint" />
            <Array as="points">
              <mxPoint x="594" y="756" />
            </Array>
          </mxGeometry>
        </mxCell>
        <mxCell id="mPcV5KLfGnNKVoKbEEDN-75" value="6. Create Endpoint" style="edgeLabel;html=1;align=center;verticalAlign=middle;resizable=0;points=[];fontSize=15;" vertex="1" connectable="0" parent="mPcV5KLfGnNKVoKbEEDN-74">
          <mxGeometry x="-0.1791" relative="1" as="geometry">
            <mxPoint x="66" y="83" as="offset" />
          </mxGeometry>
        </mxCell>
        <mxCell id="mPcV5KLfGnNKVoKbEEDN-89" value="&lt;font style=&quot;font-size: 15px;&quot;&gt;Github Pipeline&lt;/font&gt;" style="dashed=0;outlineConnect=0;html=1;align=center;labelPosition=center;verticalLabelPosition=top;verticalAlign=bottom;shape=mxgraph.weblogos.github" vertex="1" parent="1">
          <mxGeometry x="510" y="290" width="130" height="140" as="geometry" />
        </mxCell>
        <mxCell id="mPcV5KLfGnNKVoKbEEDN-92" value="Deployment VM Environment" style="sketch=0;outlineConnect=0;fontColor=#232F3E;gradientColor=none;fillColor=#DD344C;strokeColor=none;dashed=0;verticalLabelPosition=bottom;verticalAlign=top;align=center;html=1;fontSize=15;fontStyle=0;aspect=fixed;pointerEvents=1;shape=mxgraph.aws4.development_environment;" vertex="1" parent="1">
          <mxGeometry x="1140" y="770" width="76.9" height="70" as="geometry" />
        </mxCell>
        <mxCell id="mPcV5KLfGnNKVoKbEEDN-103" value="" style="endArrow=classic;html=1;rounded=0;entryX=0.86;entryY=1.022;entryDx=0;entryDy=0;entryPerimeter=0;" edge="1" parent="1" target="mPcV5KLfGnNKVoKbEEDN-50">
          <mxGeometry width="50" height="50" relative="1" as="geometry">
            <mxPoint x="650" y="420" as="sourcePoint" />
            <mxPoint x="930" y="570" as="targetPoint" />
            <Array as="points">
              <mxPoint x="1195" y="420" />
            </Array>
          </mxGeometry>
        </mxCell>
        <mxCell id="mPcV5KLfGnNKVoKbEEDN-104" value="8. Delete Test Runtime" style="edgeLabel;html=1;align=center;verticalAlign=middle;resizable=0;points=[];fontSize=15;" vertex="1" connectable="0" parent="mPcV5KLfGnNKVoKbEEDN-103">
          <mxGeometry x="0.0032" y="-1" relative="1" as="geometry">
            <mxPoint as="offset" />
          </mxGeometry>
        </mxCell>
        <mxCell id="mPcV5KLfGnNKVoKbEEDN-105" value="ML Compute Managed Identity" style="image;aspect=fixed;html=1;points=[];align=center;fontSize=15;image=img/lib/azure2/identity/Managed_Identities.svg;" vertex="1" parent="1">
          <mxGeometry x="1020" y="-120" width="82.42" height="80" as="geometry" />
        </mxCell>
        <mxCell id="mPcV5KLfGnNKVoKbEEDN-110" value="" style="endArrow=classic;html=1;rounded=0;" edge="1" parent="1" target="mPcV5KLfGnNKVoKbEEDN-105">
          <mxGeometry width="50" height="50" relative="1" as="geometry">
            <mxPoint x="560" y="350" as="sourcePoint" />
            <mxPoint x="610" y="300" as="targetPoint" />
            <Array as="points">
              <mxPoint x="560" y="-80" />
            </Array>
          </mxGeometry>
        </mxCell>
        <mxCell id="mPcV5KLfGnNKVoKbEEDN-111" value="&lt;font style=&quot;font-size: 15px;&quot;&gt;1. Create Azure ML Compute&lt;br&gt;Managed Identity&lt;/font&gt;" style="edgeLabel;html=1;align=center;verticalAlign=middle;resizable=0;points=[];" vertex="1" connectable="0" parent="mPcV5KLfGnNKVoKbEEDN-110">
          <mxGeometry x="0.3605" y="-1" relative="1" as="geometry">
            <mxPoint as="offset" />
          </mxGeometry>
        </mxCell>
        <mxCell id="mPcV5KLfGnNKVoKbEEDN-112" value="" style="endArrow=classic;html=1;rounded=0;" edge="1" parent="1" target="mPcV5KLfGnNKVoKbEEDN-105">
          <mxGeometry width="50" height="50" relative="1" as="geometry">
            <mxPoint x="580" y="340" as="sourcePoint" />
            <mxPoint x="630" y="290" as="targetPoint" />
            <Array as="points">
              <mxPoint x="730" y="50" />
            </Array>
          </mxGeometry>
        </mxCell>
        <mxCell id="mPcV5KLfGnNKVoKbEEDN-113" value="2. Assign &quot;ML Data Scientist Role&quot;" style="edgeLabel;html=1;align=center;verticalAlign=middle;resizable=0;points=[];fontSize=15;" vertex="1" connectable="0" parent="mPcV5KLfGnNKVoKbEEDN-112">
          <mxGeometry x="0.2345" y="-1" relative="1" as="geometry">
            <mxPoint x="-1" as="offset" />
          </mxGeometry>
        </mxCell>
        <mxCell id="mPcV5KLfGnNKVoKbEEDN-117" value="" style="endArrow=classic;html=1;rounded=0;entryX=0;entryY=0.25;entryDx=0;entryDy=0;" edge="1" parent="1" target="mPcV5KLfGnNKVoKbEEDN-50">
          <mxGeometry width="50" height="50" relative="1" as="geometry">
            <mxPoint x="600" y="330" as="sourcePoint" />
            <mxPoint x="650" y="280" as="targetPoint" />
            <Array as="points">
              <mxPoint x="720" y="240" />
            </Array>
          </mxGeometry>
        </mxCell>
        <mxCell id="mPcV5KLfGnNKVoKbEEDN-118" value="&lt;font style=&quot;font-size: 15px;&quot;&gt;3. Create Test VM, Environment and&amp;nbsp;&lt;br&gt;Runtime&lt;br&gt;&lt;/font&gt;" style="edgeLabel;html=1;align=center;verticalAlign=middle;resizable=0;points=[];" vertex="1" connectable="0" parent="mPcV5KLfGnNKVoKbEEDN-117">
          <mxGeometry x="-0.0953" y="-4" relative="1" as="geometry">
            <mxPoint as="offset" />
          </mxGeometry>
        </mxCell>
        <mxCell id="mPcV5KLfGnNKVoKbEEDN-119" value="" style="endArrow=classic;html=1;rounded=0;entryX=0.274;entryY=1.022;entryDx=0;entryDy=0;entryPerimeter=0;" edge="1" parent="1" source="mPcV5KLfGnNKVoKbEEDN-89" target="mPcV5KLfGnNKVoKbEEDN-50">
          <mxGeometry width="50" height="50" relative="1" as="geometry">
            <mxPoint x="640" y="360" as="sourcePoint" />
            <mxPoint x="970" y="290" as="targetPoint" />
            <Array as="points">
              <mxPoint x="800" y="360" />
              <mxPoint x="1001" y="360" />
            </Array>
          </mxGeometry>
        </mxCell>
        <mxCell id="mPcV5KLfGnNKVoKbEEDN-120" value="4. Run Prompt Flow Test" style="edgeLabel;html=1;align=center;verticalAlign=middle;resizable=0;points=[];fontSize=15;" vertex="1" connectable="0" parent="mPcV5KLfGnNKVoKbEEDN-119">
          <mxGeometry x="-0.0382" relative="1" as="geometry">
            <mxPoint as="offset" />
          </mxGeometry>
        </mxCell>
      </root>
    </mxGraphModel>
  </diagram>
</mxfile>
